<svg version="1.2" xmlns="http://www.w3.org/2000/svg" viewBox="0 0 396 120" width="396" height="120">
	<title>logo</title>
	<style>
		.s0 { fill: #e72463 } 
		.s1 { fill: #000000 } 
	</style>
	<g id="SvgjsG1014">
		<g>
			<path class="s0" d="m106.03 65.73q-0.28-2.04-0.52-4.03c-0.64-5.36-3.59-6.94-7.32-8.94-1.59-0.86-3.39-1.83-5.41-3.25-6.15-4.33-9.58-3.49-14.33-2.32-1.09 0.27-2.28 0.56-3.63 0.82q-1.52 0.31-3.15 1.06c0.69-0.85 1.59-1.91 2.77-3.27 5.74-6.58 9.72-19.21 8.2-25.99-0.6-2.65-1.25-5.18-1.83-7.41-0.81-3.12-1.51-5.81-1.77-7.75-0.23-1.69-0.58-3.36-1.99-3.56-0.78-0.11-1.5 0.33-1.8 1.01-0.31 0.57-0.75 1.12-1.55 2.12-0.93 1.16-2.32 2.91-4.5 5.93-2.28 3.15-7.67 8.98-12.42 14.13-2.49 2.69-4.74 5.13-6.34 6.96 0.03-2.48 0.09-5.82 0.12-7.35 1.05-0.43 1.78-1.46 1.78-2.66v-4.88c0-1.59-1.29-2.88-2.94-2.88-1.59 0-2.88 1.29-2.88 2.88v4.88c0 1.34 0.93 2.46 2.17 2.78-0.03 1.74-0.11 5.4-0.13 7.84-3.51-3.21-10.02-8.79-17.84-9.07q-2.32-0.09-4.75-0.21c-8-0.39-15.57-0.77-18.77 1.43-1.5 0.52-4.2 3.17-6.07 14.81-1.67 10.41-1.32 11.14-0.04 11.7 1.2 0.54 2.05-0.51 2.5-1.08q0.16-0.2 0.31-0.36c1.51-1.52 3.65-3.15 6.79-2.3 3.74 1 16.34 7.28 20.34 9.62q-0.65-0.05-1.36-0.09l-1.52-0.08c-6.89-0.36-13.4-0.69-18.5 8.15-5.2 9.02-6.35 27.21-2.08 32.97 3.03 4.09 5.11 5.71 6.35 6.68q0.5 0.37 0.81 0.66c0.29 0.29 0.72 0.45 1.13 0.45q0.34 0.01 0.63-0.14c1.07-0.54 0.95-1.34 0.53-3.96-0.65-4.16-2-12.83 0.9-16.91 3.35-4.72 10.28-9.36 14.85-10.91-4.07 4.84-8.44 11.72-8.61 22.41-0.12 7.69 2.52 13.09 4.26 16.66 0.67 1.36 1.25 2.54 1.46 3.41 0.29 1.24 0.74 3.12 2.42 3.12 0.74 0 1.31-0.41 1.91-0.85 0.43-0.32 0.91-0.67 1.55-0.99 1.97-0.98 3.54-3.84 5.36-7.14 1.15-2.09 2.35-4.26 3.65-5.96 1.02-1.32 2.55-3.05 4.18-4.89 3.84-4.34 8.2-9.27 9.55-12.85 1-2.62 1.38-7 0.91-10.93 1 0.28 2.34 0.48 4.43 0.77 1.25 0.18 2.79 0.4 4.73 0.71 5.81 0.9 13.4-0.53 18.95-1.58 2.4-0.45 4.47-0.84 5.79-0.93 2.82-0.19 3.59 1.6 4.65 5.74l0.16 0.59c0.02 0.08 2.23 7.42 4.69 7.42q0.12 0 0.25-0.03c0.69-0.14 1.32-0.81 1.18-1.78 0.01-0.21 0.33-0.89 0.59-1.44 0.48-1.03 1.15-2.45 1.73-4.44 0.97-3.31 0.24-8.75-0.53-14.5zm-47.14-39.5c4.81-5.21 10.26-11.1 12.64-14.4 2.14-2.96 3.51-4.68 4.41-5.82q0.18-0.21 0.33-0.41c0.33 2.03 0.99 4.59 1.75 7.52 0.57 2.21 1.23 4.72 1.81 7.32 1.31 5.83-2.5 17.68-7.56 23.47-5 5.75-5.46 6.85-5.77 8.31-5.75 4.24-11.2 10.45-12.93 13.52q-0.13-0.07-0.26-0.12c0.57-1.09 1.28-2.63 2.08-4.34 1.13-2.45 2.91-6.27 3.9-7.76q0.29 0.08 0.58 0.09c0.84 0 1.6-0.46 1.99-1.21l2.23-4.27c0.57-1.1 0.14-2.45-0.95-3.02-1.06-0.55-2.47-0.12-3.03 0.95l-2.22 4.27c-0.28 0.53-0.33 1.14-0.15 1.71 0.03 0.1 0.1 0.17 0.14 0.27-1.01 1.41-2.37 4.27-4.19 8.18-0.53 1.13-1.04 2.23-1.48 3.15 0.51-3.33 1.19-8.59 1.81-13.38 0.39-3.05 0.8-6.17 1.03-7.76 0.86-0.25 1.54-0.97 1.66-1.9l0.68-5.16c0.17-1.26-0.72-2.43-1.99-2.6-0.06-0.01-0.24-0.02-0.3-0.02-1.15 0-2.14 0.86-2.29 2.01l-0.68 5.18c-0.12 0.91 0.33 1.77 1.07 2.24-0.21 1.36-0.52 3.8-1.04 7.77-0.55 4.3-1.2 9.33-1.7 12.7-0.13-6.88-0.07-20.78-0.05-26.7v-0.45q0.29-0.14 0.49-0.4c1.18-1.57 4.49-5.15 7.99-8.94zm-21.22 31.14c-0.02-0.01-1.94-1.18-3.86-2.62-2.05-1.53-17.84-9.54-22.37-10.76-3.92-1.05-6.79 0.63-8.42 1.98 0.15-1.4 0.43-3.51 0.95-6.71 1.7-10.6 3.91-12.36 4.19-12.54q0.31-0.07 0.56-0.27c2.18-1.74 10.46-1.33 17.11-1.01q2.45 0.13 4.79 0.22c7.29 0.26 13.62 6.12 16.67 8.94q0.62 0.58 1.06 0.97 0.09 0.06 0.19 0.11v0.33c-0.02 5.53-0.07 16.19 0 23.42-1.03-5.48-2.55-12.91-3.35-15.91q0.48-0.38 0.74-0.95c0.31-0.66 0.33-1.39 0.08-2.07l-0.98-2.63c-0.5-1.36-2.13-2.1-3.48-1.6-0.68 0.25-1.22 0.75-1.52 1.41-0.3 0.66-0.33 1.4-0.08 2.07l0.98 2.64c0.39 1.04 1.39 1.74 2.51 1.76 0.94 3.61 3.27 15.23 4.07 20.07-1.01-0.98-2.15-2.41-2.95-4.04q-0.04-0.12-0.12-0.23c-1.03-2.19-2.88-5.62-4.25-7.47q0.22-0.4 0.28-0.85c0.09-0.67-0.09-1.33-0.5-1.86l-2.29-2.97c-0.81-1.05-2.46-1.27-3.51-0.45-0.53 0.41-0.88 1-0.96 1.66-0.09 0.67 0.09 1.33 0.5 1.85l2.29 2.98c0.47 0.62 1.2 0.97 1.98 0.97q0.4 0 0.78-0.13c0.87 1.19 2.04 3.22 3.06 5.19q-0.93-0.29-1.84-0.6-0.99-0.34-2.06-0.67-0.11-0.13-0.25-0.23zm-22.1 25.09c-3.3 4.65-2.3 13.05-1.56 17.88-1.06-0.97-2.41-2.4-4.13-4.71-3.32-4.48-2.68-21.25 2.26-29.82 4.22-7.32 9.36-7.05 15.86-6.71l1.54 0.08c4.81 0.21 7.09 0.99 9.51 1.81 1.17 0.4 2.38 0.81 3.89 1.17q0.3 0.07 0.59 0.01c0.61 1 1.31 1.93 2.02 2.71-2.75 0.66-6.18 2.06-9.52 4.96-5.12-0.41-15.85 6.14-20.46 12.62zm40.25 2.66c-1.17 3.08-5.53 8-9.03 11.96-1.66 1.88-3.22 3.65-4.3 5.04-1.44 1.88-2.68 4.14-3.89 6.32-1.38 2.52-2.96 5.38-4.13 5.96-0.7 0.35-1.25 0.73-1.69 1.05q-0.05-0.19-0.11-0.43c-0.27-1.17-0.92-2.49-1.66-4-1.73-3.53-4.09-8.35-3.97-15.35 0.16-10.37 4.47-16.66 8.66-21.45 4.79-5.48 10.23-6.73 13.19-6.98l1.08 0.3q0.14 0.03 0.27 0.04c0.02 0 1.82 0.19 4.33 2.28 2.24 1.88 2.97 10.72 1.25 15.26zm47.98-5.69c-0.5 1.7-1.05 2.91-1.51 3.88-0.51-1-1.05-2.25-1.39-3.53l-0.15-0.58c-0.89-3.49-2.09-8.27-7.64-7.89-1.49 0.1-3.63 0.51-6.12 0.97-5.34 1.01-12.66 2.4-17.97 1.56-1.96-0.31-3.51-0.53-4.77-0.71-3.75-0.54-4.48-0.66-5.21-1.31q-0.17-0.13-0.36-0.2c-0.52-1.7-1.26-3.12-2.27-3.96q-0.23-0.19-0.45-0.35 0.04-0.05 0.08-0.1c2.34-4.21 12.7-15.07 19.33-16.37 1.4-0.28 2.64-0.58 3.77-0.86 4.59-1.13 6.91-1.7 11.98 1.88 2.17 1.53 4.05 2.54 5.71 3.43 3.57 1.92 5.36 2.88 5.82 6.75q0.25 2.01 0.53 4.08c0.7 5.2 1.42 10.58 0.62 13.31z"/>
		</g>
	</g>
	<g id="SvgjsG1015">
		<path class="s1" d="m184.97 74.74h-13.51v-24.44h-29.52v24.44h-13.51v-62.91h13.51v26.68h29.52v-26.68h13.51zm49.31-4.73q-1.63 2.24-5.63 4-4 1.77-8.74 1.77-7.31 0-12.69-3.28-5.38-3.27-8.22-8.9-2.84-5.64-2.84-12.52 0-6.89 2.84-12.53 2.84-5.63 8.22-8.9 5.38-3.27 12.69-3.27 4.91 0 8.65 1.67 3.75 1.68 5.72 4.26v-4.9h12.74v47.33h-12.74zm-3.01-28.61q-3.53-3.75-9.46-3.75-6.03 0-9.51 3.75-3.49 3.74-3.49 9.68 0 5.77 3.57 9.55 3.57 3.79 9.43 3.79 6.02 0 9.51-3.57 3.48-3.57 3.48-9.77 0-5.94-3.53-9.68zm64.38 28.61q-1.64 2.24-5.64 4-4 1.77-8.74 1.77-7.31 0-12.69-3.27-5.38-3.27-8.22-8.91-2.84-5.64-2.84-12.52 0-6.89 2.84-12.52 2.84-5.64 8.22-8.91 5.38-3.27 12.69-3.27 4.91 0 8.65 1.68 3.75 1.68 5.73 4.26v-22.64h12.73v65.07h-12.73zm-3.02-28.62q-3.52-3.74-9.46-3.74-6.03 0-9.51 3.74-3.49 3.74-3.49 9.68 0 5.77 3.57 9.56 3.58 3.78 9.43 3.78 6.02 0 9.51-3.57 3.48-3.57 3.48-9.77 0-5.94-3.53-9.68zm40.54-21q-2.07 2.02-4.99 2.02-3.01 0-5.12-2.02-2.11-2.02-2.11-4.95 0-2.84 2.11-4.86 2.11-2.02 5.12-2.02 2.92 0 4.99 2.02 2.06 2.02 2.06 4.86 0 2.93-2.06 4.95zm-11.45 7.1h12.91v47.25h-12.91zm61.54 42.51q-1.64 2.24-5.64 4-4 1.77-8.74 1.77-7.31 0-12.69-3.27-5.38-3.27-8.22-8.91-2.84-5.64-2.84-12.52 0-6.89 2.84-12.52 2.84-5.64 8.22-8.91 5.38-3.27 12.69-3.27 4.91 0 8.65 1.68 3.75 1.68 5.73 4.26v-4.91h12.73v47.34h-12.73zm-3.02-28.62q-3.52-3.74-9.46-3.74-6.03 0-9.51 3.74-3.49 3.74-3.49 9.68 0 5.77 3.57 9.56 3.58 3.78 9.43 3.78 6.02 0 9.51-3.57 3.48-3.57 3.48-9.77 0-5.94-3.53-9.68z"/>
	</g>
	<g id="SvgjsG1016">
		<path class="s0" d="m171.51 86.69v11.4h14.47v-11.4h2.42v25.88h-2.42v-12.28h-14.47v12.28h-2.41v-25.88zm53.89 0l10.89 25.88h-2.71l-2.81-6.87h-13.71l-2.92 6.87h-2.52l11.29-25.88zm-7.38 16.81h11.88l-5.85-14.18zm49.24-16.81q6.51 0 10.18 3.51 3.68 3.51 3.75 9.61 0 3.58-1.63 6.49-1.62 2.9-4.68 4.58-3.05 1.69-7.47 1.69h-8.22v-25.88zm-0.52 23.68q5.56 0 8.78-2.81 3.21-2.82 3.25-7.75 0-5.26-3.2-8.08-3.2-2.81-8.93-2.85h-5.05v21.49zm41.75-23.68v25.88h-2.41v-25.88zm37 0l10.89 25.88h-2.7l-2.81-6.88h-13.71l-2.92 6.88h-2.53l11.3-25.88zm-7.39 16.81h11.88l-5.84-14.18z"/>
	</g>
</svg>