<svg width="396" height="120" viewBox="0 0 396 120" fill="none" xmlns="http://www.w3.org/2000/svg">
<path d="M106.03 65.7301C105.843 64.3701 105.67 63.0267 105.51 61.7001C104.87 56.3401 101.92 54.7601 98.1898 52.7601C96.5998 51.9001 94.7998 50.9301 92.7798 49.5101C86.6298 45.1801 83.1998 46.0201 78.4498 47.1901C77.3598 47.4601 76.1698 47.7501 74.8198 48.0101C73.8064 48.2167 72.7564 48.5701 71.6698 49.0701C72.3598 48.2201 73.2598 47.1601 74.4398 45.8001C80.1798 39.2201 84.1598 26.5901 82.6398 19.8101C82.0398 17.1601 81.3898 14.6301 80.8098 12.4001C79.9998 9.28007 79.2998 6.59007 79.0398 4.65007C78.8098 2.96007 78.4598 1.29007 77.0498 1.09007C76.2698 0.980066 75.5498 1.42007 75.2498 2.10007C74.9398 2.67007 74.4998 3.22007 73.6998 4.22007C72.7698 5.38007 71.3798 7.13007 69.1998 10.1501C66.9198 13.3001 61.5298 19.1301 56.7798 24.2801C54.2898 26.9701 52.0398 29.4101 50.4398 31.2401C50.4698 28.7601 50.5298 25.4201 50.5598 23.8901C51.6098 23.4601 52.3398 22.4301 52.3398 21.2301V16.3501C52.3398 14.7601 51.0498 13.4701 49.3998 13.4701C47.8098 13.4701 46.5198 14.7601 46.5198 16.3501V21.2301C46.5198 22.5701 47.4498 23.6901 48.6898 24.0101C48.6598 25.7501 48.5798 29.4101 48.5598 31.8501C45.0498 28.6401 38.5398 23.0601 30.7198 22.7801C29.1731 22.7201 27.5898 22.6501 25.9698 22.5701C17.9698 22.1801 10.3998 21.8001 7.19977 24.0001C5.69977 24.5201 2.99977 27.1701 1.12977 38.8101C-0.540227 49.2201 -0.190227 49.9501 1.08977 50.5101C2.28977 51.0501 3.13977 50.0001 3.58977 49.4301C3.69644 49.2967 3.79977 49.1767 3.89977 49.0701C5.40977 47.5501 7.54977 45.9201 10.6898 46.7701C14.4298 47.7701 27.0298 54.0501 31.0298 56.3901C30.5964 56.3567 30.1431 56.3267 29.6698 56.3001L28.1498 56.2201C21.2598 55.8601 14.7498 55.5301 9.64977 64.3701C4.44977 73.3901 3.29977 91.5801 7.56977 97.3401C10.5998 101.43 12.6798 103.05 13.9198 104.02C14.2531 104.267 14.5231 104.487 14.7298 104.68C15.0198 104.97 15.4498 105.13 15.8598 105.13C16.0864 105.137 16.2964 105.09 16.4898 104.99C17.5598 104.45 17.4398 103.65 17.0198 101.03C16.3698 96.8701 15.0198 88.2001 17.9198 84.1201C21.2698 79.4001 28.1998 74.7601 32.7698 73.2101C28.6998 78.0501 24.3298 84.9301 24.1598 95.6201C24.0398 103.31 26.6798 108.71 28.4198 112.28C29.0898 113.64 29.6698 114.82 29.8798 115.69C30.1698 116.93 30.6198 118.81 32.2998 118.81C33.0398 118.81 33.6098 118.4 34.2098 117.96C34.6398 117.64 35.1198 117.29 35.7598 116.97C37.7298 115.99 39.2998 113.13 41.1198 109.83C42.2698 107.74 43.4698 105.57 44.7698 103.87C45.7898 102.55 47.3198 100.82 48.9498 98.9801C52.7898 94.6401 57.1498 89.7101 58.4998 86.1301C59.4998 83.5101 59.8798 79.1301 59.4098 75.2001C60.4098 75.4801 61.7498 75.6801 63.8398 75.9701C65.0898 76.1501 66.6298 76.3701 68.5698 76.6801C74.3798 77.5801 81.9698 76.1501 87.5198 75.1001C89.9198 74.6501 91.9898 74.2601 93.3098 74.1701C96.1298 73.9801 96.8998 75.7701 97.9598 79.9101L98.1198 80.5001C98.1398 80.5801 100.35 87.9201 102.81 87.9201C102.89 87.9201 102.973 87.9101 103.06 87.8901C103.75 87.7501 104.38 87.0801 104.24 86.1101C104.25 85.9001 104.57 85.2201 104.83 84.6701C105.31 83.6401 105.98 82.2201 106.56 80.2301C107.53 76.9201 106.8 71.4801 106.03 65.7301ZM58.8898 26.2301C63.6998 21.0201 69.1498 15.1301 71.5298 11.8301C73.6698 8.87007 75.0398 7.15007 75.9398 6.01007C76.0598 5.87007 76.1698 5.7334 76.2698 5.60007C76.5998 7.63007 77.2598 10.1901 78.0198 13.1201C78.5898 15.3301 79.2498 17.8401 79.8298 20.4401C81.1398 26.2701 77.3298 38.1201 72.2698 43.9101C67.2698 49.6601 66.8098 50.7601 66.4998 52.2201C60.7498 56.4601 55.2998 62.6701 53.5698 65.7401C53.4831 65.6934 53.3964 65.6534 53.3098 65.6201C53.8798 64.5301 54.5898 62.9901 55.3898 61.2801C56.5198 58.8301 58.2998 55.0101 59.2898 53.5201C59.4831 53.5734 59.6764 53.6034 59.8698 53.6101C60.7098 53.6101 61.4698 53.1501 61.8598 52.4001L64.0898 48.1301C64.6598 47.0301 64.2298 45.6801 63.1398 45.1101C62.0798 44.5601 60.6698 44.9901 60.1098 46.0601L57.8898 50.3301C57.6098 50.8601 57.5598 51.4701 57.7398 52.0401C57.7698 52.1401 57.8398 52.2101 57.8798 52.3101C56.8698 53.7201 55.5098 56.5801 53.6898 60.4901C53.1598 61.6201 52.6498 62.7201 52.2098 63.6401C52.7198 60.3101 53.3998 55.0501 54.0198 50.2601C54.4098 47.2101 54.8198 44.0901 55.0498 42.5001C55.9098 42.2501 56.5898 41.5301 56.7098 40.6001L57.3898 35.4401C57.5598 34.1801 56.6698 33.0101 55.3998 32.8401C55.3398 32.8301 55.1598 32.8201 55.0998 32.8201C53.9498 32.8201 52.9598 33.6801 52.8098 34.8301L52.1298 40.0101C52.0098 40.9201 52.4598 41.7801 53.1998 42.2501C52.9898 43.6101 52.6798 46.0501 52.1598 50.0201C51.6098 54.3201 50.9598 59.3501 50.4598 62.7201C50.3298 55.8401 50.3898 41.9401 50.4098 36.0201V35.5701C50.6031 35.4767 50.7664 35.3434 50.8998 35.1701C52.0798 33.6001 55.3898 30.0201 58.8898 26.2301ZM37.6698 57.3701C37.6498 57.3601 35.7298 56.1901 33.8098 54.7501C31.7598 53.2201 15.9698 45.2101 11.4398 43.9901C7.51977 42.9401 4.64977 44.6201 3.01977 45.9701C3.16977 44.5701 3.44977 42.4601 3.96977 39.2601C5.66977 28.6601 7.87977 26.9001 8.15977 26.7201C8.36644 26.6734 8.55311 26.5834 8.71977 26.4501C10.8998 24.7101 19.1798 25.1201 25.8298 25.4401C27.4631 25.5267 29.0598 25.6001 30.6198 25.6601C37.9098 25.9201 44.2398 31.7801 47.2898 34.6001C47.7031 34.9867 48.0564 35.3101 48.3498 35.5701C48.4098 35.6101 48.4731 35.6467 48.5398 35.6801V36.0101C48.5198 41.5401 48.4698 52.2001 48.5398 59.4301C47.5098 53.9501 45.9898 46.5201 45.1898 43.5201C45.5098 43.2667 45.7564 42.9501 45.9298 42.5701C46.2398 41.9101 46.2598 41.1801 46.0098 40.5001L45.0298 37.8701C44.5298 36.5101 42.8998 35.7701 41.5498 36.2701C40.8698 36.5201 40.3298 37.0201 40.0298 37.6801C39.7298 38.3401 39.6998 39.0801 39.9498 39.7501L40.9298 42.3901C41.3198 43.4301 42.3198 44.1301 43.4398 44.1501C44.3798 47.7601 46.7098 59.3801 47.5098 64.2201C46.4998 63.2401 45.3598 61.8101 44.5598 60.1801C44.5331 60.1001 44.4931 60.0234 44.4398 59.9501C43.4098 57.7601 41.5598 54.3301 40.1898 52.4801C40.3364 52.2134 40.4298 51.9301 40.4698 51.6301C40.5598 50.9601 40.3798 50.3001 39.9698 49.7701L37.6798 46.8001C36.8698 45.7501 35.2198 45.5301 34.1698 46.3501C33.6398 46.7601 33.2898 47.3501 33.2098 48.0101C33.1198 48.6801 33.2998 49.3401 33.7098 49.8601L35.9998 52.8401C36.4698 53.4601 37.1998 53.8101 37.9798 53.8101C38.2464 53.8101 38.5064 53.7667 38.7598 53.6801C39.6298 54.8701 40.7998 56.9001 41.8198 58.8701C41.1998 58.6767 40.5864 58.4767 39.9798 58.2701C39.3198 58.0434 38.6331 57.8201 37.9198 57.6001C37.8464 57.5134 37.7631 57.4367 37.6698 57.3701ZM15.5698 82.4601C12.2698 87.1101 13.2698 95.5101 14.0098 100.34C12.9498 99.3701 11.5998 97.9401 9.87977 95.6301C6.55977 91.1501 7.19977 74.3801 12.1398 65.8101C16.3598 58.4901 21.4998 58.7601 27.9998 59.1001L29.5398 59.1801C34.3498 59.3901 36.6298 60.1701 39.0498 60.9901C40.2198 61.3901 41.4298 61.8001 42.9398 62.1601C43.1398 62.2067 43.3364 62.2101 43.5298 62.1701C44.1398 63.1701 44.8398 64.1001 45.5498 64.8801C42.7998 65.5401 39.3698 66.9401 36.0298 69.8401C30.9098 69.4301 20.1798 75.9801 15.5698 82.4601ZM55.8198 85.1201C54.6498 88.2001 50.2898 93.1201 46.7898 97.0801C45.1298 98.9601 43.5698 100.73 42.4898 102.12C41.0498 104 39.8098 106.26 38.5998 108.44C37.2198 110.96 35.6398 113.82 34.4698 114.4C33.7698 114.75 33.2198 115.13 32.7798 115.45C32.7464 115.323 32.7098 115.18 32.6698 115.02C32.3998 113.85 31.7498 112.53 31.0098 111.02C29.2798 107.49 26.9198 102.67 27.0398 95.6701C27.1998 85.3001 31.5098 79.0101 35.6998 74.2201C40.4898 68.7401 45.9298 67.4901 48.8898 67.2401L49.9698 67.5401C50.0631 67.5601 50.1531 67.5734 50.2398 67.5801C50.2598 67.5801 52.0598 67.7701 54.5698 69.8601C56.8098 71.7401 57.5398 80.5801 55.8198 85.1201ZM103.8 79.4301C103.3 81.1301 102.75 82.3401 102.29 83.3101C101.78 82.3101 101.24 81.0601 100.9 79.7801L100.75 79.2001C99.8598 75.7101 98.6598 70.9301 93.1098 71.3101C91.6198 71.4101 89.4798 71.8201 86.9898 72.2801C81.6498 73.2901 74.3298 74.6801 69.0198 73.8401C67.0598 73.5301 65.5098 73.3101 64.2498 73.1301C60.4998 72.5901 59.7698 72.4701 59.0398 71.8201C58.9264 71.7334 58.8064 71.6667 58.6798 71.6201C58.1598 69.9201 57.4198 68.5001 56.4098 67.6601C56.2564 67.5334 56.1064 67.4167 55.9598 67.3101C55.9864 67.2767 56.0131 67.2434 56.0398 67.2101C58.3798 63.0001 68.7398 52.1401 75.3698 50.8401C76.7698 50.5601 78.0098 50.2601 79.1398 49.9801C83.7298 48.8501 86.0498 48.2801 91.1198 51.8601C93.2898 53.3901 95.1698 54.4001 96.8298 55.2901C100.4 57.2101 102.19 58.1701 102.65 62.0401C102.816 63.3801 102.993 64.7401 103.18 66.1201C103.88 71.3201 104.6 76.7001 103.8 79.4301Z" fill="#E72463"/>
<path d="M184.97 74.7401H171.46V50.3001H141.94V74.7401H128.43V11.8301H141.94V38.5101H171.46V11.8301H184.97V74.7401ZM234.28 70.0101C233.194 71.5034 231.317 72.8367 228.65 74.0101C225.984 75.1901 223.07 75.7801 219.91 75.7801C215.037 75.7801 210.807 74.6867 207.22 72.5001C203.634 70.3201 200.894 67.3534 199 63.6001C197.107 59.8401 196.16 55.6667 196.16 51.0801C196.16 46.4867 197.107 42.3101 199 38.5501C200.894 34.7967 203.634 31.8301 207.22 29.6501C210.807 27.4701 215.037 26.3801 219.91 26.3801C223.184 26.3801 226.067 26.9367 228.56 28.0501C231.06 29.1701 232.967 30.5901 234.28 32.3101V27.4101H247.02V74.7401H234.28V70.0101ZM231.27 41.4001C228.917 38.9001 225.764 37.6501 221.81 37.6501C217.79 37.6501 214.62 38.9001 212.3 41.4001C209.974 43.8934 208.81 47.1201 208.81 51.0801C208.81 54.9267 210 58.1101 212.38 60.6301C214.76 63.1567 217.904 64.4201 221.81 64.4201C225.824 64.4201 228.994 63.2301 231.32 60.8501C233.64 58.4701 234.8 55.2134 234.8 51.0801C234.8 47.1201 233.624 43.8934 231.27 41.4001ZM295.65 70.0101C294.557 71.5034 292.677 72.8367 290.01 74.0101C287.344 75.1901 284.43 75.7801 281.27 75.7801C276.397 75.7801 272.167 74.6901 268.58 72.5101C264.994 70.3301 262.254 67.3601 260.36 63.6001C258.467 59.8401 257.52 55.6667 257.52 51.0801C257.52 46.4867 258.467 42.3134 260.36 38.5601C262.254 34.8001 264.994 31.8301 268.58 29.6501C272.167 27.4701 276.397 26.3801 281.27 26.3801C284.544 26.3801 287.427 26.9401 289.92 28.0601C292.42 29.1801 294.33 30.6001 295.65 32.3201V9.68006H308.38V74.7501H295.65V70.0101ZM292.63 41.3901C290.284 38.8967 287.13 37.6501 283.17 37.6501C279.15 37.6501 275.98 38.8967 273.66 41.3901C271.334 43.8834 270.17 47.1101 270.17 51.0701C270.17 54.9167 271.36 58.1034 273.74 60.6301C276.127 63.1501 279.27 64.4101 283.17 64.4101C287.184 64.4101 290.354 63.2201 292.68 60.8401C295 58.4601 296.16 55.2034 296.16 51.0701C296.16 47.1101 294.984 43.8834 292.63 41.3901ZM333.17 20.3901C331.79 21.7367 330.127 22.4101 328.18 22.4101C326.174 22.4101 324.467 21.7367 323.06 20.3901C321.654 19.0434 320.95 17.3934 320.95 15.4401C320.95 13.5467 321.654 11.9267 323.06 10.5801C324.467 9.23339 326.174 8.56006 328.18 8.56006C330.127 8.56006 331.79 9.23339 333.17 10.5801C334.544 11.9267 335.23 13.5467 335.23 15.4401C335.23 17.3934 334.544 19.0434 333.17 20.3901ZM321.72 27.4901H334.63V74.7401H321.72V27.4901ZM383.26 70.0001C382.167 71.4934 380.287 72.8267 377.62 74.0001C374.954 75.1801 372.04 75.7701 368.88 75.7701C364.007 75.7701 359.777 74.6801 356.19 72.5001C352.604 70.3201 349.864 67.3501 347.97 63.5901C346.077 59.8301 345.13 55.6567 345.13 51.0701C345.13 46.4767 346.077 42.3034 347.97 38.5501C349.864 34.7901 352.604 31.8201 356.19 29.6401C359.777 27.4601 364.007 26.3701 368.88 26.3701C372.154 26.3701 375.037 26.9301 377.53 28.0501C380.03 29.1701 381.94 30.5901 383.26 32.3101V27.4001H395.99V74.7401H383.26V70.0001ZM380.24 41.3801C377.894 38.8867 374.74 37.6401 370.78 37.6401C366.76 37.6401 363.59 38.8867 361.27 41.3801C358.944 43.8734 357.78 47.1001 357.78 51.0601C357.78 54.9067 358.97 58.0934 361.35 60.6201C363.737 63.1401 366.88 64.4001 370.78 64.4001C374.794 64.4001 377.964 63.2101 380.29 60.8301C382.61 58.4501 383.77 55.1934 383.77 51.0601C383.77 47.1001 382.594 43.8734 380.24 41.3801Z" fill="white"/>
<path d="M171.51 86.6899V98.0899H185.98V86.6899H188.4V112.57H185.98V100.29H171.51V112.57H169.1V86.6899H171.51ZM225.4 86.6899L236.29 112.57H233.58L230.77 105.7H217.06L214.14 112.57H211.62L222.91 86.6899H225.4ZM218.02 103.5H229.9L224.05 89.3199L218.02 103.5ZM267.26 86.6899C271.6 86.6899 274.993 87.8599 277.44 90.1999C279.893 92.5399 281.143 95.7433 281.19 99.8099C281.19 102.197 280.647 104.36 279.56 106.3C278.48 108.233 276.92 109.76 274.88 110.88C272.847 112.007 270.357 112.57 267.41 112.57H259.19V86.6899H267.26ZM266.74 110.37C270.447 110.37 273.373 109.433 275.52 107.56C277.66 105.68 278.743 103.097 278.77 99.8099C278.77 96.3033 277.703 93.6099 275.57 91.7299C273.437 89.8566 270.46 88.9066 266.64 88.8799H261.59V110.37H266.74ZM308.49 86.6899V112.57H306.08V86.6899H308.49ZM345.49 86.6899L356.38 112.57H353.68L350.87 105.69H337.16L334.24 112.57H331.71L343.01 86.6899H345.49ZM338.1 103.5H349.98L344.14 89.3199L338.1 103.5Z" fill="#E72463"/>
</svg>
