<svg width="119" height="120" viewBox="0 0 119 120" fill="none" xmlns="http://www.w3.org/2000/svg">
<g clip-path="url(#clip0_9_2)">
<path d="M106.03 65.73C105.843 64.37 105.67 63.0267 105.51 61.7C104.87 56.34 101.92 54.76 98.19 52.76C96.6 51.9 94.8 50.93 92.78 49.51C86.63 45.18 83.2 46.02 78.45 47.19C77.36 47.46 76.17 47.75 74.82 48.01C73.8067 48.2167 72.7567 48.57 71.67 49.07C72.36 48.22 73.26 47.16 74.44 45.8C80.18 39.22 84.16 26.59 82.64 19.81C82.04 17.16 81.39 14.63 80.81 12.4C80 9.28 79.3 6.59001 79.04 4.65001C78.81 2.96001 78.46 1.29001 77.05 1.09001C76.27 0.980005 75.55 1.42 75.25 2.1C74.94 2.67 74.5 3.22 73.7 4.22C72.77 5.38 71.38 7.13 69.2 10.15C66.92 13.3 61.53 19.13 56.78 24.28C54.29 26.97 52.04 29.41 50.44 31.24C50.47 28.76 50.53 25.42 50.56 23.89C51.61 23.46 52.34 22.43 52.34 21.23V16.35C52.34 14.76 51.05 13.47 49.4 13.47C47.81 13.47 46.52 14.76 46.52 16.35V21.23C46.52 22.57 47.45 23.69 48.69 24.01C48.66 25.75 48.58 29.41 48.56 31.85C45.05 28.64 38.54 23.06 30.72 22.78C29.1733 22.72 27.59 22.65 25.97 22.57C17.97 22.18 10.4 21.8 7.20002 24C5.70002 24.52 3.00002 27.17 1.13002 38.81C-0.539983 49.22 -0.189983 49.95 1.09002 50.51C2.29002 51.05 3.14002 50 3.59002 49.43C3.69668 49.2967 3.80002 49.1767 3.90002 49.07C5.41002 47.55 7.55002 45.92 10.69 46.77C14.43 47.77 27.03 54.05 31.03 56.39C30.5967 56.3567 30.1434 56.3267 29.67 56.3L28.15 56.22C21.26 55.86 14.75 55.53 9.65002 64.37C4.45002 73.39 3.30002 91.58 7.57002 97.34C10.6 101.43 12.68 103.05 13.92 104.02C14.2534 104.267 14.5234 104.487 14.73 104.68C15.02 104.97 15.45 105.13 15.86 105.13C16.0867 105.137 16.2967 105.09 16.49 104.99C17.56 104.45 17.44 103.65 17.02 101.03C16.37 96.87 15.02 88.2 17.92 84.12C21.27 79.4 28.2 74.76 32.77 73.21C28.7 78.05 24.33 84.93 24.16 95.62C24.04 103.31 26.68 108.71 28.42 112.28C29.09 113.64 29.67 114.82 29.88 115.69C30.17 116.93 30.62 118.81 32.3 118.81C33.04 118.81 33.61 118.4 34.21 117.96C34.64 117.64 35.12 117.29 35.76 116.97C37.73 115.99 39.3 113.13 41.12 109.83C42.27 107.74 43.47 105.57 44.77 103.87C45.79 102.55 47.32 100.82 48.95 98.98C52.79 94.64 57.15 89.71 58.5 86.13C59.5 83.51 59.88 79.13 59.41 75.2C60.41 75.48 61.75 75.68 63.84 75.97C65.09 76.15 66.63 76.37 68.57 76.68C74.38 77.58 81.97 76.15 87.52 75.1C89.92 74.65 91.99 74.26 93.31 74.17C96.13 73.98 96.9 75.77 97.96 79.91L98.12 80.5C98.14 80.58 100.35 87.92 102.81 87.92C102.89 87.92 102.973 87.91 103.06 87.89C103.75 87.75 104.38 87.08 104.24 86.11C104.25 85.9 104.57 85.22 104.83 84.67C105.31 83.64 105.98 82.22 106.56 80.23C107.53 76.92 106.8 71.48 106.03 65.73ZM58.89 26.23C63.7 21.02 69.15 15.13 71.53 11.83C73.67 8.87 75.04 7.15001 75.94 6.01001C76.06 5.87001 76.17 5.73334 76.27 5.60001C76.6 7.63001 77.26 10.19 78.02 13.12C78.59 15.33 79.25 17.84 79.83 20.44C81.14 26.27 77.33 38.12 72.27 43.91C67.27 49.66 66.81 50.76 66.5 52.22C60.75 56.46 55.3 62.67 53.57 65.74C53.4833 65.6933 53.3967 65.6533 53.31 65.62C53.88 64.53 54.59 62.99 55.39 61.28C56.52 58.83 58.3 55.01 59.29 53.52C59.4833 53.5733 59.6767 53.6033 59.87 53.61C60.71 53.61 61.47 53.15 61.86 52.4L64.09 48.13C64.66 47.03 64.23 45.68 63.14 45.11C62.08 44.56 60.67 44.99 60.11 46.06L57.89 50.33C57.61 50.86 57.56 51.47 57.74 52.04C57.77 52.14 57.84 52.21 57.88 52.31C56.87 53.72 55.51 56.58 53.69 60.49C53.16 61.62 52.65 62.72 52.21 63.64C52.72 60.31 53.4 55.05 54.02 50.26C54.41 47.21 54.82 44.09 55.05 42.5C55.91 42.25 56.59 41.53 56.71 40.6L57.39 35.44C57.56 34.18 56.67 33.01 55.4 32.84C55.34 32.83 55.16 32.82 55.1 32.82C53.95 32.82 52.96 33.68 52.81 34.83L52.13 40.01C52.01 40.92 52.46 41.78 53.2 42.25C52.99 43.61 52.68 46.05 52.16 50.02C51.61 54.32 50.96 59.35 50.46 62.72C50.33 55.84 50.39 41.94 50.41 36.02V35.57C50.6033 35.4767 50.7667 35.3433 50.9 35.17C52.08 33.6 55.39 30.02 58.89 26.23ZM37.67 57.37C37.65 57.36 35.73 56.19 33.81 54.75C31.76 53.22 15.97 45.21 11.44 43.99C7.52002 42.94 4.65002 44.62 3.02002 45.97C3.17002 44.57 3.45002 42.46 3.97002 39.26C5.67002 28.66 7.88002 26.9 8.16002 26.72C8.36668 26.6733 8.55335 26.5833 8.72002 26.45C10.9 24.71 19.18 25.12 25.83 25.44C27.4634 25.5267 29.06 25.6 30.62 25.66C37.91 25.92 44.24 31.78 47.29 34.6C47.7033 34.9867 48.0567 35.31 48.35 35.57C48.41 35.61 48.4733 35.6467 48.54 35.68V36.01C48.52 41.54 48.47 52.2 48.54 59.43C47.51 53.95 45.99 46.52 45.19 43.52C45.51 43.2667 45.7567 42.95 45.93 42.57C46.24 41.91 46.26 41.18 46.01 40.5L45.03 37.87C44.53 36.51 42.9 35.77 41.55 36.27C40.87 36.52 40.33 37.02 40.03 37.68C39.73 38.34 39.7 39.08 39.95 39.75L40.93 42.39C41.32 43.43 42.32 44.13 43.44 44.15C44.38 47.76 46.71 59.38 47.51 64.22C46.5 63.24 45.36 61.81 44.56 60.18C44.5333 60.1 44.4933 60.0233 44.44 59.95C43.41 57.76 41.56 54.33 40.19 52.48C40.3367 52.2133 40.43 51.93 40.47 51.63C40.56 50.96 40.38 50.3 39.97 49.77L37.68 46.8C36.87 45.75 35.22 45.53 34.17 46.35C33.64 46.76 33.29 47.35 33.21 48.01C33.12 48.68 33.3 49.34 33.71 49.86L36 52.84C36.47 53.46 37.2 53.81 37.98 53.81C38.2467 53.81 38.5067 53.7667 38.76 53.68C39.63 54.87 40.8 56.9 41.82 58.87C41.2 58.6767 40.5867 58.4767 39.98 58.27C39.32 58.0433 38.6333 57.82 37.92 57.6C37.8467 57.5133 37.7633 57.4367 37.67 57.37ZM15.57 82.46C12.27 87.11 13.27 95.51 14.01 100.34C12.95 99.37 11.6 97.94 9.88002 95.63C6.56002 91.15 7.20002 74.38 12.14 65.81C16.36 58.49 21.5 58.76 28 59.1L29.54 59.18C34.35 59.39 36.63 60.17 39.05 60.99C40.22 61.39 41.43 61.8 42.94 62.16C43.14 62.2067 43.3367 62.21 43.53 62.17C44.14 63.17 44.84 64.1 45.55 64.88C42.8 65.54 39.37 66.94 36.03 69.84C30.91 69.43 20.18 75.98 15.57 82.46ZM55.82 85.12C54.65 88.2 50.29 93.12 46.79 97.08C45.13 98.96 43.57 100.73 42.49 102.12C41.05 104 39.81 106.26 38.6 108.44C37.22 110.96 35.64 113.82 34.47 114.4C33.77 114.75 33.22 115.13 32.78 115.45C32.7467 115.323 32.71 115.18 32.67 115.02C32.4 113.85 31.75 112.53 31.01 111.02C29.28 107.49 26.92 102.67 27.04 95.67C27.2 85.3 31.51 79.01 35.7 74.22C40.49 68.74 45.93 67.49 48.89 67.24L49.97 67.54C50.0633 67.56 50.1534 67.5733 50.24 67.58C50.26 67.58 52.06 67.77 54.57 69.86C56.81 71.74 57.54 80.58 55.82 85.12ZM103.8 79.43C103.3 81.13 102.75 82.34 102.29 83.31C101.78 82.31 101.24 81.06 100.9 79.78L100.75 79.2C99.86 75.71 98.66 70.93 93.11 71.31C91.62 71.41 89.48 71.82 86.99 72.28C81.65 73.29 74.33 74.68 69.02 73.84C67.06 73.53 65.51 73.31 64.25 73.13C60.5 72.59 59.77 72.47 59.04 71.82C58.9267 71.7333 58.8067 71.6667 58.68 71.62C58.16 69.92 57.42 68.5 56.41 67.66C56.2567 67.5333 56.1067 67.4167 55.96 67.31C55.9867 67.2767 56.0133 67.2433 56.04 67.21C58.38 63 68.74 52.14 75.37 50.84C76.77 50.56 78.01 50.26 79.14 49.98C83.73 48.85 86.05 48.28 91.12 51.86C93.29 53.39 95.17 54.4 96.83 55.29C100.4 57.21 102.19 58.17 102.65 62.04C102.817 63.38 102.993 64.74 103.18 66.12C103.88 71.32 104.6 76.7 103.8 79.43Z" fill="#E72463"/>
</g>
<defs>
<clipPath id="clip0_9_2">
<rect width="119" height="120" fill="white"/>
</clipPath>
</defs>
</svg>
