<svg width="400" height="400" viewBox="0 0 400 400" fill="none" xmlns="http://www.w3.org/2000/svg">
<rect width="400" height="400" rx="200" fill="#E72463"/>
<path d="M136.969 143.06H157.849L199.969 257H174.229C172.189 251.12 169.789 243.38 167.029 233.78H127.609C124.849 242.3 122.329 250.04 120.049 257H94.8488L136.969 143.06ZM147.589 176.54C144.949 183.86 140.749 195.98 134.989 212.9H159.829C154.669 197.9 150.589 185.78 147.589 176.54ZM242.613 143.06H263.493L305.613 257H279.873C277.833 251.12 275.433 243.38 272.673 233.78H233.253C230.493 242.3 227.973 250.04 225.693 257H200.493L242.613 143.06ZM253.233 176.54C250.593 183.86 246.393 195.98 240.633 212.9H265.473C260.313 197.9 256.233 185.78 253.233 176.54Z" fill="white"/>
</svg>
