<svg width="400" height="400" viewBox="0 0 400 400" fill="none" xmlns="http://www.w3.org/2000/svg">
<rect width="400" height="400" rx="200" fill="#E72463"/>
<path d="M82.9705 249.12L94.3105 233.46C100.911 238.02 109.731 240.3 120.771 240.3C132.531 240.3 138.411 235.8 138.411 226.8C138.411 221.4 131.631 216.24 118.071 211.32C97.4305 203.88 87.1105 192.18 87.1105 176.22C87.1105 166.5 90.7105 158.76 97.9105 153C104.631 147.6 113.691 144.9 125.091 144.9C137.931 144.9 150.051 148.86 161.451 156.78C159.291 160.02 155.691 165.24 150.651 172.44C140.571 168.24 131.931 166.14 124.731 166.14C115.611 166.14 111.051 169.56 111.051 176.4C111.051 179.28 112.251 181.74 114.651 183.78C117.171 185.7 122.031 188.1 129.231 190.98C141.711 195.78 150.711 201.12 156.231 207C161.871 212.88 164.691 219.84 164.691 227.88C164.691 239.88 160.251 249.06 151.371 255.42C144.171 260.58 135.111 263.16 124.191 263.16C111.471 263.16 97.7305 258.48 82.9705 249.12ZM310.879 147.06V261H285.499V168.66C279.259 195.66 270.439 226.44 259.039 261H237.619C224.179 219.84 215.419 189.42 211.339 169.74V261H186.499V147.06H222.139C232.339 175.98 240.979 204.18 248.059 231.66C255.259 205.5 263.779 177.3 273.619 147.06H310.879Z" fill="white"/>
</svg>
